<svg id="Layer_1" data-name="Layer 1" xmlns="http://www.w3.org/2000/svg" viewBox="0 0 1024 1024"><defs><style>.cls-1{fill:#1d3f5e;opacity:0.4;}.cls-2{fill:#fff;}.cls-3{fill:#0f335e;}.cls-4{fill:#f2886a;}.cls-5{fill:#ff9f40;}.cls-6{fill:#5ac4ff;}.cls-12,.cls-13,.cls-14,.cls-16,.cls-17,.cls-7{fill:none;stroke:#fff;stroke-miterlimit:10;}.cls-7{stroke-width:1.26px;}.cls-8{fill:#ffd500;}.cls-9{fill:#1c5e8e;}.cls-10{fill:#3c3c3b;}.cls-11{fill:#878787;}.cls-12{stroke-width:2.71px;}.cls-13{stroke-width:4.98px;}.cls-14{stroke-width:1.16px;}.cls-15{fill:#ffcbbd;}.cls-16{stroke-width:1.16px;}.cls-17{stroke-width:0.63px;}</style></defs><rect class="cls-1" x="253.51" y="168.62" width="547.47" height="706.85"/><rect class="cls-2" x="238.04" y="152.66" width="547.47" height="706.85"/><rect class="cls-3" x="238.04" y="149.96" width="547.47" height="58.13"/><circle class="cls-2" cx="742.34" cy="179.03" r="7.12"/><circle class="cls-2" cx="720.43" cy="179.03" r="7.12"/><circle class="cls-2" cx="698.52" cy="179.03" r="7.12"/><rect class="cls-4" x="238.04" y="208.09" width="547.47" height="651.42"/><path class="cls-5" d="M50.68,200.82q14.79,0,23.64,8.55t8.85,23.07q0,14.2-9.43,23.64T46,265.5q-18.87,0-28.58-12.61T7.75,220.83q0-18.56,8.84-33.21a89.18,89.18,0,0,1,22.34-25,109.9,109.9,0,0,1,28.28-15.81l6.38,13.93A71.44,71.44,0,0,0,53.72,172a67.79,67.79,0,0,0-15.37,16.68,37.12,37.12,0,0,0-6.24,19.15q1.16-2,6.24-4.5A28.06,28.06,0,0,1,50.68,200.82Z"/><path class="cls-6" d="M142.52,200.82q14.79,0,23.64,8.55T175,232.44q0,14.2-9.42,23.64t-27.7,9.42q-18.87,0-28.58-12.61t-9.71-32.06q0-18.56,8.84-33.21a89.18,89.18,0,0,1,22.34-25,109.9,109.9,0,0,1,28.28-15.81l6.38,13.93A71.3,71.3,0,0,0,145.56,172a67.79,67.79,0,0,0-15.37,16.68A37.12,37.12,0,0,0,124,207.78q1.15-2,6.24-4.5A28.06,28.06,0,0,1,142.52,200.82Z"/><path class="cls-7" d="M45.63,204.64q14.79,0,23.64,8.55t8.84,23.07q0,14.2-9.42,23.64T41,269.32q-18.85,0-28.57-12.61T2.69,224.65a63,63,0,0,1,8.85-33.21,89,89,0,0,1,22.34-24.95,109.9,109.9,0,0,1,28.28-15.81l6.38,13.93a71.3,71.3,0,0,0-19.87,11.16A67.6,67.6,0,0,0,33.3,192.45a37.12,37.12,0,0,0-6.24,19.15q1.15-2,6.24-4.5A28.06,28.06,0,0,1,45.63,204.64Z"/><path class="cls-7" d="M137.46,204.64q14.81,0,23.65,8.55T170,236.26q0,14.2-9.42,23.64t-27.71,9.42q-18.85,0-28.57-12.61t-9.72-32.06a63,63,0,0,1,8.85-33.21,89,89,0,0,1,22.34-24.95A109.9,109.9,0,0,1,154,150.68l6.38,13.93a71.3,71.3,0,0,0-19.87,11.16,67.6,67.6,0,0,0-15.37,16.68,37.12,37.12,0,0,0-6.24,19.15q1.16-2,6.24-4.5A28,28,0,0,1,137.46,204.64Z"/><path class="cls-8" d="M972.14,823.18q-14.79,0-23.64-8.55t-8.85-23.07q0-14.2,9.43-23.64t27.7-9.42q18.86,0,28.57,12.61t9.72,32.06a63,63,0,0,1-8.85,33.21,89,89,0,0,1-22.33,25,110,110,0,0,1-28.29,15.81l-6.38-13.93a71.3,71.3,0,0,0,19.87-11.16,67.84,67.84,0,0,0,15.38-16.68,37.2,37.2,0,0,0,6.23-19.15q-1.16,2-6.23,4.5A28.09,28.09,0,0,1,972.14,823.18Z"/><path class="cls-6" d="M880.3,823.18q-14.79,0-23.64-8.55t-8.85-23.07q0-14.2,9.43-23.64t27.7-9.42q18.85,0,28.57,12.61t9.72,32.06a63,63,0,0,1-8.85,33.21,89,89,0,0,1-22.33,25,110.07,110.07,0,0,1-28.28,15.81l-6.39-13.93a71.16,71.16,0,0,0,19.87-11.16,67.64,67.64,0,0,0,15.38-16.68,37.2,37.2,0,0,0,6.23-19.15q-1.15,2-6.23,4.5A28.06,28.06,0,0,1,880.3,823.18Z"/><path class="cls-7" d="M978.37,818.69q-14.79,0-23.64-8.56t-8.84-23.06q0-14.22,9.42-23.64T983,754q18.86,0,28.57,12.62t9.72,32q0,18.57-8.85,33.21a88.89,88.89,0,0,1-22.34,25,109.61,109.61,0,0,1-28.28,15.81l-6.38-13.92a71.59,71.59,0,0,0,19.87-11.17,67.25,67.25,0,0,0,15.37-16.68,37.07,37.07,0,0,0,6.24-19.15q-1.16,2-6.24,4.5A28.05,28.05,0,0,1,978.37,818.69Z"/><path class="cls-7" d="M886.54,818.69q-14.81,0-23.65-8.56t-8.84-23.06q0-14.22,9.42-23.64T891.18,754q18.86,0,28.57,12.62t9.72,32q0,18.57-8.85,33.21a88.89,88.89,0,0,1-22.34,25A109.61,109.61,0,0,1,870,872.64l-6.38-13.92a71.59,71.59,0,0,0,19.87-11.17,67.25,67.25,0,0,0,15.37-16.68,37.07,37.07,0,0,0,6.24-19.15q-1.15,2-6.24,4.5A28,28,0,0,1,886.54,818.69Z"/><rect class="cls-2" x="238.04" y="208.09" width="547.47" height="56.17"/><rect class="cls-9" x="238.04" y="208.09" width="56.17" height="56.17"/><path class="cls-2" d="M266.1,221.48a14.37,14.37,0,1,0,14.37,14.37A14.39,14.39,0,0,0,266.1,221.48Zm-12.91,14.37a12.82,12.82,0,0,1,1.12-5.26l6.16,16.88A12.92,12.92,0,0,1,253.19,235.85Zm12.91,12.91a12.87,12.87,0,0,1-3.64-.53L266.33,237l4,10.88.09.18A12.92,12.92,0,0,1,266.1,248.76Zm1.78-19c.78,0,1.48-.12,1.48-.12a.54.54,0,0,0-.08-1.07s-2.09.17-3.44.17-3.4-.17-3.4-.17a.54.54,0,0,0-.08,1.07s.65.08,1.35.12l2,5.51-2.82,8.48-4.71-14c.78,0,1.48-.12,1.48-.12a.54.54,0,0,0-.08-1.07s-2.09.17-3.44.17l-.83,0a12.9,12.9,0,0,1,19.5-2.43h-.16a2.24,2.24,0,0,0-2.17,2.29,6,6,0,0,0,1.27,3,6.83,6.83,0,0,1,1.06,3.56,15.53,15.53,0,0,1-1,4.18l-1.29,4.3Zm9.56-.14A12.92,12.92,0,0,1,272.6,247l3.94-11.41a12.09,12.09,0,0,0,1-4.62A10.93,10.93,0,0,0,277.44,229.65Z"/><path class="cls-10" d="M363.13,242.63h4.32A3.56,3.56,0,0,0,371,240a3.62,3.62,0,0,0,0-1.76,3.39,3.39,0,0,0-.64-1.27,3.61,3.61,0,0,0-1.58-1.17,3,3,0,0,0-1-.2h-4.61v2.64l-5.25-3.5,5.25-3.53v2.64h4.27c.31,0,.62,0,.92.06a4.8,4.8,0,0,1,1.88.66,5.38,5.38,0,0,1,1.07.83,5.31,5.31,0,0,1,1.11,1.62,5.28,5.28,0,0,1-3.56,7.22,5.3,5.3,0,0,1-1.32.16h-4.36Z"/><path class="cls-11" d="M405.23,242.63h-4.32A3.56,3.56,0,0,1,397.4,240a3.5,3.5,0,0,1,0-1.76A3.23,3.23,0,0,1,398,237a3.61,3.61,0,0,1,1.58-1.17,3,3,0,0,1,1-.2h4.61v2.64l5.25-3.5-5.25-3.53v2.64H401c-.31,0-.62,0-.92.06a4.86,4.86,0,0,0-1.88.66,5.38,5.38,0,0,0-1.07.83A5.31,5.31,0,0,0,396,237a5.28,5.28,0,0,0,3.56,7.22,5.3,5.3,0,0,0,1.32.16h4.36Z"/><path class="cls-10" d="M441.19,246.32h0a8.55,8.55,0,0,1-8.53-8.54,8.52,8.52,0,0,1,8.49-8.53h.1a8.4,8.4,0,0,1,6,2.47,8.55,8.55,0,0,1-6,14.6Zm-.05-15.92a7.37,7.37,0,0,0-7.34,7.38,7.39,7.39,0,0,0,7.38,7.38h0a7.38,7.38,0,1,0,0-14.76h-.06Zm1.21,12.34H440v-6.67h2.31Zm-1.16-1.15h0v0Zm0-6.55h-.1a1.32,1.32,0,0,1-1.24-1.35,1.3,1.3,0,0,1,.42-.93,1.37,1.37,0,0,1,1-.35,1.32,1.32,0,0,1,1.27,1.37,1.3,1.3,0,0,1-.44.93A1.35,1.35,0,0,1,441.2,235Zm0-1.48a.21.21,0,0,0-.13.05l-.05.12a.16.16,0,0,0,.15.15h0a.35.35,0,0,0,.13,0c.05-.17,0-.28-.12-.28Z"/><rect class="cls-10" x="440.26" y="236.64" width="1.35" height="5.34"/><circle class="cls-10" cx="441.24" cy="234.09" r="0.77"/><path class="cls-10" d="M327.17,246.32h0a8.53,8.53,0,0,1-6-14.6,8.4,8.4,0,0,1,6-2.47h.1a8.53,8.53,0,0,1,6,14.57A8.51,8.51,0,0,1,327.17,246.32Zm-.05-15.92a7.37,7.37,0,0,0-7.34,7.38,7.39,7.39,0,0,0,7.38,7.38h0a7.38,7.38,0,0,0,0-14.76h-.06Z"/><g id="Group_10" data-name="Group 10"><polygon class="cls-10" points="330.69 236.88 330.69 238.58 327.96 238.58 327.96 241.3 326.26 241.3 326.26 238.58 323.65 238.58 323.65 236.88 326.26 236.88 326.26 234.27 327.96 234.27 327.96 236.88 330.69 236.88"/></g><g id="Group_13" data-name="Group 13"><rect id="Rectangle_119" data-name="Rectangle 119" class="cls-10" x="474.32" y="231.15" width="12.83" height="2.14"/><rect id="Rectangle_120" data-name="Rectangle 120" class="cls-10" x="471.89" y="231.15" width="1.71" height="2.14"/><rect id="Rectangle_121" data-name="Rectangle 121" class="cls-10" x="476.74" y="236.71" width="12.83" height="2.14"/><rect id="Rectangle_122" data-name="Rectangle 122" class="cls-10" x="474.32" y="236.71" width="1.71" height="2.14"/><rect id="Rectangle_123" data-name="Rectangle 123" class="cls-10" x="479.02" y="242.27" width="12.83" height="2.14"/><rect id="Rectangle_124" data-name="Rectangle 124" class="cls-10" x="476.74" y="242.27" width="1.71" height="2.14"/></g><path class="cls-10" d="M513.83,246.25l.17-3.35,10.79-10.79,3.06,3.06-10.78,10.77Zm1.57-2.73-.06,1.15,1.09-.1,9.4-9.4-1-1Z"/><rect class="cls-10" x="526.26" y="230.3" width="2.37" height="4.43" transform="translate(-9.92 441.06) rotate(-45)"/><rect class="cls-7" x="309.24" y="344.09" width="430.64" height="145.92"/><path class="cls-12" d="M328.39,357V477.14"/><path class="cls-13" d="M309.24,310.69v180"/><rect class="cls-14" x="309.24" y="311.32" width="104.09" height="32.78"/><rect class="cls-15" x="352.22" y="384.2" width="359.08" height="11.91" rx="5.96"/><rect class="cls-15" x="352.22" y="411.46" width="359.08" height="11.91" rx="5.96"/><rect class="cls-15" x="352.22" y="451.97" width="119.18" height="5.72" rx="2.38"/><rect class="cls-7" x="268.52" y="351.31" width="32.15" height="84.18" rx="3.19"/><circle class="cls-2" cx="279.53" cy="390.16" r="1.61"/><circle class="cls-2" cx="284.51" cy="390.16" r="1.61"/><circle class="cls-2" cx="289.49" cy="390.16" r="1.61"/><circle class="cls-2" cx="279.69" cy="396.63" r="1.61"/><circle class="cls-2" cx="284.67" cy="396.63" r="1.61"/><circle class="cls-2" cx="289.65" cy="396.63" r="1.61"/><path class="cls-16" d="M279.26,420.94l5.42,5.42,5.24-5.42"/><path class="cls-16" d="M289.92,365.85l-5.42-5.42c-1.74,1.81-3.49,3.61-5.24,5.42"/><path class="cls-2" d="M343.41,323l-3.06,3.21a.09.09,0,0,1-.12,0l-1.16-1.11a.08.08,0,0,1,0-.12L340,324a.08.08,0,0,0-.06-.14H331.3l-.06,0-4.08,3.47a.08.08,0,0,1-.12,0l-1-1.22a.07.07,0,0,1,0-.11l4.59-3.9,0,0h9.21a.08.08,0,0,0,.06-.14l-.94-.91a.08.08,0,0,1,0-.12l1.11-1.16a.09.09,0,0,1,.12,0l3.21,3.07A.09.09,0,0,1,343.41,323Z"/><path class="cls-2" d="M328.37,332.13l3.07-3.21a.09.09,0,0,1,.12,0l1.16,1.11a.09.09,0,0,1,0,.12l-.89.92a.09.09,0,0,0,.07.15h8.59l.05,0,4.09-3.47a.08.08,0,0,1,.12,0l1,1.21a.09.09,0,0,1,0,.12l-4.59,3.9-.06,0h-9.21a.08.08,0,0,0-.05.14l.94.91a.09.09,0,0,1,0,.12l-1.1,1.15a.08.08,0,0,1-.12,0l-3.21-3.07A.08.08,0,0,1,328.37,332.13Z"/><rect class="cls-17" x="316.42" y="315.16" width="38.94" height="24.78" rx="1.84"/><path class="cls-7" d="M360.25,311.32v32.93"/><rect class="cls-2" x="372.94" y="321.39" width="7.67" height="1.73"/><rect class="cls-2" x="372.94" y="328.24" width="7.67" height="1.73"/><rect class="cls-2" x="372.94" y="324.82" width="11.88" height="1.73"/><rect class="cls-2" x="372.94" y="331.66" width="11.88" height="1.73"/><circle class="cls-2" cx="400.94" cy="321.77" r="1.69"/><circle class="cls-2" cx="400.94" cy="327.71" r="1.69"/><circle class="cls-2" cx="400.94" cy="333.64" r="1.69"/><rect class="cls-15" x="286.72" y="542.88" width="454.22" height="11.91" rx="4.64"/><rect class="cls-15" x="286.72" y="575.52" width="454.22" height="11.91" rx="4.64"/><rect class="cls-15" x="286.72" y="608.15" width="454.22" height="11.91" rx="4.64"/><rect class="cls-15" x="286.72" y="640.79" width="454.22" height="11.91" rx="4.64"/><rect class="cls-15" x="438.74" y="676.81" width="301.15" height="11.91" rx="5.96"/><rect class="cls-15" x="438.74" y="709.45" width="301.15" height="11.91" rx="5.96"/><rect class="cls-15" x="438.74" y="742.09" width="301.15" height="11.91" rx="5.96"/><rect class="cls-15" x="438.74" y="774.73" width="301.15" height="11.91" rx="5.96"/><rect class="cls-15" x="286.28" y="676.81" width="132.27" height="109.82" rx="7.06"/></svg>